<svg width="934" height="254" viewBox="0 0 934 254" fill="none" xmlns="http://www.w3.org/2000/svg">
<g clip-path="url(#clip0_16_9)">
<rect width="934" height="254" fill="white"/>
<rect x="27" y="30" width="524" height="194" rx="32" fill="#101010"/>
<path d="M113.4 179.4C104.3 179.4 96.25 178.125 89.25 175.575C82.25 172.975 76.7 169.025 72.6 163.725C68.55 158.425 66.325 151.725 65.925 143.625C65.875 142.275 66.5 141.6 67.8 141.6H87.825C89.075 141.6 89.775 142.2 89.925 143.4C90.425 147.2 91.475 150.525 93.075 153.375C94.675 156.225 97.125 158.425 100.425 159.975C103.725 161.525 108.2 162.3 113.85 162.3C118.4 162.3 122.25 161.825 125.4 160.875C128.55 159.925 130.925 158.425 132.525 156.375C134.175 154.325 135 151.65 135 148.35C135 144.95 133.775 142.3 131.325 140.4C128.925 138.5 125.725 137.025 121.725 135.975C117.775 134.925 113.4 134 108.6 133.2C103.85 132.35 99.075 131.325 94.275 130.125C89.525 128.925 85.15 127.25 81.15 125.1C77.2 122.9 74 119.95 71.55 116.25C69.15 112.5 67.95 107.65 67.95 101.7C67.95 95.15 69.6 89.5 72.9 84.75C76.2 79.95 80.975 76.25 87.225 73.65C93.525 71.05 101.15 69.75 110.1 69.75C122.25 69.75 132.275 72.225 140.175 77.175C148.125 82.075 152.95 90 154.65 100.95C154.9 102.35 154.3 103.05 152.85 103.05H132.825C131.625 103.05 130.925 102.425 130.725 101.175C130.075 96.575 127.875 93.075 124.125 90.675C120.425 88.225 115.45 87 109.2 87C103.8 87 99.35 88 95.85 90C92.35 91.95 90.6 95.1 90.6 99.45C90.6 102.65 91.8 105.15 94.2 106.95C96.65 108.7 99.875 110.075 103.875 111.075C107.875 112.075 112.275 112.975 117.075 113.775C121.875 114.575 126.675 115.575 131.475 116.775C136.275 117.975 140.675 119.675 144.675 121.875C148.675 124.025 151.875 126.975 154.275 130.725C156.725 134.425 157.95 139.25 157.95 145.2C157.95 152.6 156.15 158.85 152.55 163.95C148.95 169 143.8 172.85 137.1 175.5C130.45 178.1 122.55 179.4 113.4 179.4ZM204.802 178.95C196.402 178.95 189.227 177.3 183.277 174C177.377 170.7 172.852 166.025 169.702 159.975C166.602 153.925 165.052 146.8 165.052 138.6C165.052 130.4 166.602 123.25 169.702 117.15C172.852 111 177.377 106.25 183.277 102.9C189.227 99.5 196.402 97.8 204.802 97.8C213.202 97.8 220.327 99.45 226.177 102.75C232.077 106.05 236.552 110.725 239.602 116.775C242.702 122.825 244.252 129.95 244.252 138.15C244.252 146.35 242.702 153.525 239.602 159.675C236.552 165.775 232.077 170.525 226.177 173.925C220.327 177.275 213.202 178.95 204.802 178.95ZM204.802 163.95C210.352 163.95 214.452 161.95 217.102 157.95C219.802 153.9 221.152 147.45 221.152 138.6C221.152 129.9 219.777 123.425 217.027 119.175C214.327 114.925 210.202 112.8 204.652 112.8C198.952 112.85 194.752 115.025 192.052 119.325C189.352 123.575 188.002 130.05 188.002 138.75C188.002 147.45 189.402 153.825 192.202 157.875C195.002 161.925 199.202 163.95 204.802 163.95ZM274.505 177.75L243.905 102C243.305 100.5 243.83 99.75 245.48 99.75H266.705C267.805 99.75 268.53 100.275 268.88 101.325L285.605 149.25L299.405 101.4C299.705 100.3 300.43 99.75 301.58 99.75H320.33C321.88 99.75 322.405 100.5 321.905 102L287.93 200.925C287.58 201.975 286.855 202.5 285.755 202.5H268.28C266.73 202.5 266.205 201.75 266.705 200.25L274.505 177.75ZM356.16 178.8C348.01 178.8 341.51 176.175 336.66 170.925C331.86 165.625 329.46 158.25 329.46 148.8V132.6L328.86 101.7C328.86 100.4 329.51 99.75 330.81 99.75H349.71C351.01 99.75 351.66 100.4 351.66 101.7L351.06 132.6V148.5C351.06 152.7 352.21 156.05 354.51 158.55C356.86 161.05 359.71 162.3 363.06 162.3C365.76 162.3 368.385 161.45 370.935 159.75C373.535 158.05 375.66 155.425 377.31 151.875C379.01 148.325 379.86 143.8 379.86 138.3V132.6L379.56 101.7C379.56 100.4 380.21 99.75 381.51 99.75H400.71C401.96 99.75 402.585 100.4 402.585 101.7L401.76 136.8L402.36 175.05C402.36 176.35 401.71 177 400.41 177H382.635C381.285 177 380.635 176.325 380.685 174.975L381.06 167.25C379.31 169.5 377.185 171.5 374.685 173.25C372.185 175 369.36 176.35 366.21 177.3C363.11 178.3 359.76 178.8 356.16 178.8ZM480.693 175.05C480.693 176.35 480.043 177 478.743 177H417.393C416.093 177 415.443 176.35 415.443 175.05V162.45C415.443 161.6 415.718 160.8 416.268 160.05L450.993 115.65H420.543C419.243 115.65 418.593 115 418.593 113.7V101.7C418.593 100.4 419.243 99.75 420.543 99.75H476.493C477.793 99.75 478.443 100.4 478.443 101.7V114.6C478.443 115.5 478.168 116.3 477.618 117L442.443 161.1H478.743C480.043 161.1 480.693 161.75 480.693 163.05V175.05ZM515.879 175.05C515.879 176.35 515.229 177 513.929 177H494.429C493.129 177 492.479 176.35 492.479 175.05V157.5C492.479 156.2 493.129 155.55 494.429 155.55H513.929C515.229 155.55 515.879 156.2 515.879 157.5V175.05Z" fill="white"/>
<path d="M598.4 177C597.7 177 597.275 176.65 597.125 175.95L580.55 101.1C580.4 100.2 580.75 99.75 581.6 99.75H601.775C602.575 99.75 603 100.125 603.05 100.875L611.75 157.65L622.475 100.8C622.625 100.1 623.075 99.75 623.825 99.75H648.725C649.475 99.75 649.925 100.1 650.075 100.8L660.35 156.45L669.5 100.875C669.65 100.125 670.075 99.75 670.775 99.75H689.15C690 99.75 690.35 100.2 690.2 101.1L673.775 175.95C673.625 176.65 673.2 177 672.5 177H648.05C647.35 177 646.925 176.65 646.775 175.95L634.55 119.4L623.975 175.95C623.825 176.65 623.375 177 622.625 177H598.4ZM727.562 178.95C719.162 178.95 711.987 177.3 706.037 174C700.137 170.7 695.612 166.025 692.462 159.975C689.362 153.925 687.812 146.8 687.812 138.6C687.812 130.4 689.362 123.25 692.462 117.15C695.612 111 700.137 106.25 706.037 102.9C711.987 99.5 719.162 97.8 727.562 97.8C735.962 97.8 743.087 99.45 748.937 102.75C754.837 106.05 759.312 110.725 762.362 116.775C765.462 122.825 767.012 129.95 767.012 138.15C767.012 146.35 765.462 153.525 762.362 159.675C759.312 165.775 754.837 170.525 748.937 173.925C743.087 177.275 735.962 178.95 727.562 178.95ZM727.562 163.95C733.112 163.95 737.212 161.95 739.862 157.95C742.562 153.9 743.912 147.45 743.912 138.6C743.912 129.9 742.537 123.425 739.787 119.175C737.087 114.925 732.962 112.8 727.412 112.8C721.712 112.85 717.512 115.025 714.812 119.325C712.112 123.575 710.762 130.05 710.762 138.75C710.762 147.45 712.162 153.825 714.962 157.875C717.762 161.925 721.962 163.95 727.562 163.95ZM792.961 175.8C792.961 176.6 792.561 177 791.761 177H771.811C771.011 177 770.611 176.6 770.611 175.8L771.061 138.3L770.611 100.95C770.611 100.15 771.011 99.75 771.811 99.75H791.761C792.511 99.75 792.886 100.15 792.886 100.95L792.361 112.8C795.361 108.2 799.311 104.775 804.211 102.525C809.111 100.275 814.361 99.15 819.961 99.15C821.111 99.15 822.361 99.275 823.711 99.525C824.411 99.675 824.761 100.125 824.761 100.875V115.125C824.761 115.975 824.336 116.35 823.486 116.25C823.036 116.2 822.536 116.175 821.986 116.175C821.486 116.125 821.011 116.1 820.561 116.1C815.261 116.1 810.536 117.1 806.386 119.1C802.236 121.05 798.961 124 796.561 127.95C794.161 131.85 792.961 136.75 792.961 142.65V175.8ZM828.5 177C827.7 177 827.3 176.6 827.3 175.8L827.75 124.5L827.3 73.2C827.3 72.4 827.7 72 828.5 72H848.3C849.1 72 849.5 72.4 849.5 73.2L849.2 124.05V128.475L871.7 100.425C872 99.975 872.5 99.75 873.2 99.75H895.1C895.65 99.75 895.975 99.9 896.075 100.2C896.175 100.5 896.05 100.85 895.7 101.25L872.225 127.5L899.975 175.575C900.225 175.975 900.25 176.325 900.05 176.625C899.9 176.875 899.6 177 899.15 177H875.675C875.025 177 874.55 176.725 874.25 176.175L866.3 160.8L856.625 143.775L849.35 152.85L849.5 175.8C849.5 176.6 849.1 177 848.3 177H828.5Z" fill="black"/>
</g>
<defs>
<clipPath id="clip0_16_9">
<rect width="934" height="254" fill="white"/>
</clipPath>
</defs>
</svg>
