<svg width="194" height="194" viewBox="0 0 194 194" fill="none" xmlns="http://www.w3.org/2000/svg">
<g clip-path="url(#clip0_1_4)">
<rect width="194" height="194" rx="32" fill="#101010"/>
<path d="M86.4 149.4C77.3 149.4 69.25 148.125 62.25 145.575C55.25 142.975 49.7 139.025 45.6 133.725C41.55 128.425 39.325 121.725 38.925 113.625C38.875 112.275 39.5 111.6 40.8 111.6H60.825C62.075 111.6 62.775 112.2 62.925 113.4C63.425 117.2 64.475 120.525 66.075 123.375C67.675 126.225 70.125 128.425 73.425 129.975C76.725 131.525 81.2 132.3 86.85 132.3C91.4 132.3 95.25 131.825 98.4 130.875C101.55 129.925 103.925 128.425 105.525 126.375C107.175 124.325 108 121.65 108 118.35C108 114.95 106.775 112.3 104.325 110.4C101.925 108.5 98.725 107.025 94.725 105.975C90.775 104.925 86.4 104 81.6 103.2C76.85 102.35 72.075 101.325 67.275 100.125C62.525 98.925 58.15 97.25 54.15 95.1C50.2 92.9 47 89.95 44.55 86.25C42.15 82.5 40.95 77.65 40.95 71.7C40.95 65.15 42.6 59.5 45.9 54.75C49.2 49.95 53.975 46.25 60.225 43.65C66.525 41.05 74.15 39.75 83.1 39.75C95.25 39.75 105.275 42.225 113.175 47.175C121.125 52.075 125.95 60 127.65 70.95C127.9 72.35 127.3 73.05 125.85 73.05H105.825C104.625 73.05 103.925 72.425 103.725 71.175C103.075 66.575 100.875 63.075 97.125 60.675C93.425 58.225 88.45 57 82.2 57C76.8 57 72.35 58 68.85 60C65.35 61.95 63.6 65.1 63.6 69.45C63.6 72.65 64.8 75.15 67.2 76.95C69.65 78.7 72.875 80.075 76.875 81.075C80.875 82.075 85.275 82.975 90.075 83.775C94.875 84.575 99.675 85.575 104.475 86.775C109.275 87.975 113.675 89.675 117.675 91.875C121.675 94.025 124.875 96.975 127.275 100.725C129.725 104.425 130.95 109.25 130.95 115.2C130.95 122.6 129.15 128.85 125.55 133.95C121.95 139 116.8 142.85 110.1 145.5C103.45 148.1 95.55 149.4 86.4 149.4ZM161.487 145.05C161.487 146.35 160.837 147 159.537 147H140.037C138.737 147 138.087 146.35 138.087 145.05V127.5C138.087 126.2 138.737 125.55 140.037 125.55H159.537C160.837 125.55 161.487 126.2 161.487 127.5V145.05Z" fill="white"/>
</g>
<defs>
<clipPath id="clip0_1_4">
<rect width="194" height="194" rx="32" fill="white"/>
</clipPath>
</defs>
</svg>
